<svg width="203" height="51" viewBox="0 0 203 51" fill="none" xmlns="http://www.w3.org/2000/svg">
<g clip-path="url(#clip0_332_699)">
<path d="M59.2272 50.5494C53.3163 50.5494 47.5388 48.9732 42.4941 45.9875H26.9556L22.7771 41.8065L18.5986 45.9875H0V44.1637H17.8467L22.7771 39.2303L27.7123 44.1684H42.9986L43.2128 44.3018C52.8357 50.097 65.6139 50.097 75.2368 44.3018L75.4557 44.1732H82.0043V45.997H75.9602C70.9156 48.9827 65.138 50.5589 59.2272 50.5589V50.5494Z" fill="black"/>
<path d="M59.2272 45.9922C53.7066 45.9922 48.3811 44.416 43.7981 41.4303H28.845L22.7771 35.3589L16.714 41.4256H0V39.6018H15.9573L22.7771 32.778L29.5969 39.6018H44.3454L44.5739 39.7589C48.9094 42.6399 53.9779 44.1637 59.2272 44.1637C64.4765 44.1637 69.5449 42.6399 73.8805 39.7589L74.1089 39.6065H82.0043V41.4303H74.6562C70.0732 44.416 64.7477 45.9922 59.2272 45.9922Z" fill="black"/>
<path d="M59.2272 32.3161C55.2057 32.3161 51.3651 30.659 48.6239 27.7542H34.5083L22.7819 16.0209L11.0554 27.7542H0V25.9304H10.2987L22.7771 13.4447L35.2603 25.9352H49.4282L49.6994 26.2399C52.1075 28.9447 55.5817 30.4971 59.2224 30.4971C62.8631 30.4971 66.3373 28.9447 68.7454 26.2399L69.0167 25.9352H81.9995V27.759H69.8257C67.0845 30.659 63.2439 32.3209 59.2176 32.3209L59.2272 32.3161Z" fill="black"/>
<path d="M59.2272 23.1971C56.524 23.1971 54.2729 21.2209 53.8351 18.6399H38.2823L22.7771 3.13039L7.28144 18.6352H0V16.8113H6.52474L22.7771 0.549438L39.0342 16.8161H55.5817V17.7304C55.5817 19.7399 57.2141 21.378 59.2272 21.378C61.2403 21.378 62.8727 19.7447 62.8727 17.7304V16.8209H82.009V18.6447H64.624C64.1909 21.2304 61.9399 23.2066 59.2319 23.2066L59.2272 23.1971Z" fill="black"/>
<path d="M59.2272 27.759C55.8244 27.759 52.6501 26.0256 50.8178 23.1971H36.3929L22.7771 9.57326L9.16605 23.1923H0V21.3685H8.41411L22.7819 6.99231L37.1496 21.3685H51.8601L52.1218 21.8256C53.5733 24.3542 56.3003 25.9304 59.2319 25.9304C62.1635 25.9304 64.8905 24.359 66.342 21.8256L66.6086 21.3685H82.0138V23.1923H67.646C65.8138 26.0161 62.6395 27.7542 59.2367 27.7542L59.2272 27.759Z" fill="black"/>
<path d="M59.2272 36.878C54.6584 36.878 50.261 35.259 46.8059 32.3161H32.619L22.7771 22.4685L12.9353 32.3114H0V30.4876H12.1881L22.7819 19.8923L33.3757 30.4923H47.4912L47.7482 30.7209C50.9082 33.5161 54.9868 35.0542 59.2272 35.0542C63.4675 35.0542 67.5461 33.5161 70.7062 30.7209L70.9631 30.4923H82.0043V32.3161H71.6485C68.1933 35.259 63.7959 36.878 59.2272 36.878Z" fill="black"/>
<path d="M59.2272 41.4352C54.1349 41.4352 49.2949 39.859 45.2211 36.8733H30.7344L22.7819 28.9162L14.8294 36.8733H0V35.0495H14.0727L22.7771 26.34L31.4863 35.0543H45.8255L46.0682 35.24C49.8755 38.1066 54.4252 39.6162 59.2272 39.6162C64.0291 39.6162 68.5788 38.1066 72.3861 35.24L72.6288 35.0543H82.009V36.8781H73.238C69.1642 39.8638 64.3242 41.44 59.2319 41.44L59.2272 41.4352Z" fill="black"/>
<path d="M99.0758 20.7685L96.0918 20.7638V22.0876L99.0758 22.078V29.8828H100.537V16.8971H99.0758V20.7685Z" fill="black"/>
<path d="M103.068 23.778H108.046V24.7494H105.01V26.0066H111.097V26.9066H105.11C105.11 30.4447 105.11 30.2256 105.11 30.2732H112.658V28.9732H106.495V28.1209C106.495 28.1209 112.392 28.1209 112.449 28.1209V24.7494H109.441V23.778H114.309V22.5447C114.252 22.5447 103.04 22.5447 103.068 22.5447V23.778Z" fill="black"/>
<path d="M121.087 22.8399H124.523V26.1971H125.96V16.4875H124.523V18.6542H121.234C120.596 17.9875 119.659 17.6923 118.912 17.6923C117.389 17.6923 115.861 18.9209 115.88 20.6875C115.88 22.4018 117.213 23.678 118.988 23.678C119.825 23.678 120.558 23.3637 121.087 22.8399ZM124.489 19.9304V21.5685H121.838C121.934 21.2542 121.981 20.9161 121.976 20.5542C121.976 20.3304 121.953 20.1256 121.91 19.9304H124.489ZM117.251 20.7018C117.251 19.7685 117.917 18.9399 118.969 18.9542C120.258 18.9685 120.701 20.0923 120.687 20.7018C120.658 21.8399 119.873 22.4161 118.969 22.4018C117.931 22.3875 117.251 21.6495 117.251 20.7018Z" fill="black"/>
<path d="M120.42 26.9685V25.6494C120.42 25.6494 118.926 25.6351 118.926 25.6494V30.1256H126.412V28.7637C126.412 28.7637 120.434 28.7542 120.42 28.7542V26.9637V26.9685Z" fill="black"/>
<path d="M137.891 20.1114C137.967 19.3685 137.877 17.3638 137.877 17.3638H130.524V18.7162H136.459C136.459 18.759 136.506 19.6066 136.459 20.3923C136.416 21.1447 136.178 22.459 135.892 23.2685H128.33V24.5733H133.689V30.5066H135.207L135.217 24.5685C135.217 24.5685 140.285 24.5638 140.361 24.5781V23.2733H137.377C137.606 22.5352 137.815 21.0876 137.901 20.1161L137.891 20.1114Z" fill="black"/>
<path d="M108.741 22.078H108.77C110.787 22.0495 111.782 20.5209 111.811 19.3209C111.839 17.8114 110.554 16.4542 108.77 16.4399H108.741C106.952 16.4542 105.681 17.8114 105.709 19.3209C105.738 20.5209 106.699 22.0495 108.741 22.078ZM108.755 17.6923C109.812 17.678 110.469 18.4876 110.459 19.2447C110.445 20.0304 109.926 20.7685 108.755 20.7971C107.642 20.7685 107.071 20.0257 107.056 19.2447C107.042 18.4876 107.718 17.678 108.755 17.6923Z" fill="black"/>
<path d="M147.823 25.678H150.726V27.5971H152.192V16.5304H150.726V24.3923H147.823V25.6733V25.678Z" fill="black"/>
<path d="M145.106 24.4113V25.9875H146.624V23.8589C146.624 23.8589 148.418 23.7113 150.036 23.4685V22.1399C148.08 22.4589 146.3 22.6732 144.53 22.6732H141.841C141.812 22.6875 141.855 23.8923 141.855 23.8923C141.855 23.8923 145.077 23.8685 145.106 23.8685V24.4161V24.4113Z" fill="black"/>
<path d="M145.401 28.7923L145.415 26.459H143.964C143.964 26.459 143.964 30.1542 143.964 30.1209H152.392V28.7876H145.401V28.7923Z" fill="black"/>
<path d="M146.005 22.0305C147.476 22.0162 148.885 20.9352 148.842 19.4495C148.799 17.7209 147.447 16.7448 146.005 16.7448C144.216 16.7305 143.093 17.9257 143.093 19.4495C143.093 20.8352 144.23 22.0448 146.005 22.0305ZM145.991 17.9733C147.157 17.9829 147.476 18.9067 147.476 19.3733C147.49 20.2257 146.748 20.7924 146.02 20.7924C145.001 20.7781 144.482 20.0352 144.482 19.3733C144.482 18.7114 145.03 17.9638 145.996 17.9733H145.991Z" fill="black"/>
<path d="M94.3211 20.4162C94.264 20.2257 94.2402 19.9114 94.2211 19.7638V17.7924H92.8362V19.7638C92.8172 19.9114 92.7934 20.2257 92.7363 20.4162C92.465 21.1876 91.5465 23.2019 89.8047 24.8924L90.7756 25.8828C90.7756 25.8828 92.5079 24.2305 93.512 22.0876L93.5216 22.0257L93.5311 22.0876C94.5733 24.2114 96.2676 25.8828 96.2676 25.8828L97.2384 24.8924C95.4966 23.1971 94.5781 21.1876 94.3068 20.4162H94.3211Z" fill="black"/>
<path d="M90.5234 36.1542H97.8334V37.5208H94.9637V45.1923H93.3837V37.5208H90.5234V36.1542Z" fill="black"/>
<path d="M98.8711 36.1542H100.313V39.5066H100.337C100.694 38.9113 101.436 38.4685 102.298 38.4685C103.716 38.4685 104.615 39.2256 104.615 40.697V45.1923H103.173V41.078C103.15 40.0542 102.74 39.6113 101.898 39.6113C100.937 39.6113 100.318 40.3685 100.318 41.3351V45.197H98.8759V36.1589L98.8711 36.1542Z" fill="black"/>
<path d="M107.447 42.2923C107.447 43.3209 108.004 44.2304 109.208 44.2304C110.041 44.2304 110.55 43.8637 110.802 43.1399H112.168C111.854 44.5685 110.64 45.3685 109.208 45.3685C107.157 45.3685 106.01 43.9399 106.01 41.9256C106.01 40.0637 107.223 38.4733 109.17 38.4733C111.235 38.4733 112.496 40.3304 112.258 42.2923H107.452H107.447ZM110.812 41.3447C110.764 40.4352 110.141 39.6114 109.165 39.6114C108.189 39.6114 107.485 40.3685 107.447 41.3447H110.812Z" fill="black"/>
<path d="M118.493 42.178C118.493 43.5685 119.516 44.1161 120.782 44.1161C122.172 44.1161 122.691 43.4304 122.691 42.7495C122.691 42.0685 122.315 41.7733 121.943 41.6352C121.311 41.3971 120.487 41.2304 119.25 40.8876C117.708 40.4685 117.251 39.5352 117.251 38.5971C117.251 36.7876 118.921 35.9399 120.554 35.9399C122.438 35.9399 124.018 36.9399 124.018 38.8257H122.438C122.362 37.659 121.577 37.2304 120.492 37.2304C119.759 37.2304 118.836 37.4971 118.836 38.4066C118.836 39.0399 119.269 39.3923 119.911 39.5733C120.049 39.6114 122.048 40.1304 122.519 40.2685C123.709 40.6257 124.275 41.6352 124.275 42.5733C124.275 44.5971 122.476 45.4066 120.682 45.4066C118.622 45.4066 116.951 44.4209 116.913 42.178H118.493Z" fill="black"/>
<path d="M126.764 42.2923C126.764 43.3209 127.321 44.2304 128.52 44.2304C129.353 44.2304 129.862 43.8637 130.115 43.1399H131.48C131.166 44.5685 129.948 45.3685 128.52 45.3685C126.469 45.3685 125.317 43.9399 125.317 41.9256C125.317 40.0637 126.531 38.4733 128.482 38.4733C130.543 38.4733 131.809 40.3304 131.571 42.2923H126.764ZM130.129 41.3447C130.081 40.4352 129.458 39.6114 128.482 39.6114C127.507 39.6114 126.797 40.3685 126.764 41.3447H130.129Z" fill="black"/>
<path d="M132.556 41.9114C132.556 39.9114 133.76 38.4685 135.858 38.4685C137.957 38.4685 139.157 39.9114 139.157 41.9114C139.157 43.9114 137.957 45.3685 135.858 45.3685C133.76 45.3685 132.556 43.9257 132.556 41.9114ZM137.719 41.9114C137.719 40.7828 137.148 39.6066 135.858 39.6066C134.569 39.6066 133.998 40.7828 133.998 41.9114C133.998 43.0399 134.569 44.2304 135.858 44.2304C137.148 44.2304 137.719 43.0542 137.719 41.9114Z" fill="black"/>
<path d="M146.295 45.1923H144.877V44.278H144.853C144.496 44.9351 143.716 45.3637 142.992 45.3637C141.284 45.3637 140.551 44.5066 140.551 42.797V38.6447H141.993V42.6542C141.993 43.8066 142.459 44.2256 143.244 44.2256C144.444 44.2256 144.848 43.4542 144.848 42.4399V38.6447H146.29V45.1875L146.295 45.1923Z" fill="black"/>
<path d="M148.042 36.1542H149.484V45.1923H148.042V36.1542Z" fill="black"/>
<path d="M158.936 38.6495H160.301V39.6114L160.325 39.6352C160.754 38.9114 161.501 38.4733 162.362 38.4733C163.78 38.4733 164.68 39.2304 164.68 40.7018V45.1971H163.238V41.0828C163.214 40.059 162.809 39.6161 161.962 39.6161C161.001 39.6161 160.382 40.3733 160.382 41.3399V45.2018H158.94V38.659L158.936 38.6495Z" fill="black"/>
<path d="M167.478 43.0923C167.554 43.9256 168.187 44.2304 168.958 44.2304C169.501 44.2304 170.453 44.1161 170.415 43.3685C170.376 42.6066 169.325 42.5209 168.278 42.278C167.216 42.0495 166.179 41.6685 166.179 40.3447C166.179 38.9114 167.721 38.4733 168.911 38.4733C170.253 38.4733 171.466 39.0304 171.642 40.4828H170.138C170.01 39.8018 169.444 39.6114 168.811 39.6114C168.392 39.6114 167.621 39.7114 167.621 40.2828C167.621 40.9923 168.682 41.0923 169.743 41.3352C170.795 41.5733 171.857 41.9542 171.857 43.2447C171.857 44.8018 170.286 45.3685 168.934 45.3685C167.288 45.3685 166.065 44.6352 166.036 43.0923H167.478Z" fill="black"/>
<path d="M172.485 38.6494H173.575V36.6875H175.017V38.6494H176.321V39.7256H175.017V43.2208C175.017 43.8161 175.07 44.1208 175.712 44.1208C175.917 44.1208 176.117 44.1208 176.321 44.0685V45.1827C176.007 45.2065 175.703 45.2589 175.384 45.2589C173.88 45.2589 173.599 44.678 173.575 43.5875V39.7256H172.485V38.6494Z" fill="black"/>
<path d="M177.587 36.1542H179.029V37.5208H177.587V36.1542ZM177.587 38.6494H179.029V45.1923H177.587V38.6494Z" fill="black"/>
<path d="M180.128 38.6494H181.218V36.6875H182.66V38.6494H183.964V39.7256H182.66V43.2208C182.66 43.8161 182.707 44.1208 183.355 44.1208C183.554 44.1208 183.759 44.1208 183.964 44.0685V45.1827C183.65 45.2065 183.345 45.2589 183.031 45.2589C181.522 45.2589 181.246 44.678 181.223 43.5875V39.7256H180.133V38.6494H180.128Z" fill="black"/>
<path d="M190.931 45.1923H189.513V44.278H189.489C189.137 44.9351 188.351 45.3637 187.628 45.3637C185.919 45.3637 185.187 44.5066 185.187 42.797V38.6447H186.629V42.6542C186.629 43.8066 187.095 44.2256 187.88 44.2256C189.079 44.2256 189.484 43.4542 189.484 42.4399V38.6447H190.926V45.1875L190.931 45.1923Z" fill="black"/>
<path d="M191.979 38.6494H193.068V36.6875H194.51V38.6494H195.814V39.7256H194.51V43.2208C194.51 43.8161 194.563 44.1208 195.205 44.1208C195.405 44.1208 195.61 44.1208 195.814 44.0685V45.1827C195.495 45.2065 195.196 45.2589 194.877 45.2589C193.368 45.2589 193.092 44.678 193.068 43.5875V39.7256H191.979V38.6494Z" fill="black"/>
<path d="M198.165 42.2923C198.165 43.3209 198.721 44.2304 199.921 44.2304C200.758 44.2304 201.263 43.8637 201.515 43.1399H202.881C202.567 44.5685 201.349 45.3685 199.921 45.3685C197.87 45.3685 196.723 43.9399 196.723 41.9256C196.723 40.0637 197.936 38.4733 199.887 38.4733C201.948 38.4733 203.214 40.3304 202.976 42.2923H198.169H198.165ZM201.529 41.3447C201.477 40.4352 200.858 39.6114 199.883 39.6114C198.907 39.6114 198.198 40.3685 198.165 41.3447H201.529Z" fill="black"/>
<path d="M157.698 37.2066V36.1542H154.414V37.2066H155.309V44.1399H154.414V45.1923H157.698V44.1399H156.803V37.2066H157.698Z" fill="black"/>
</g>
<defs>
<clipPath id="clip0_332_699">
<rect width="203" height="50" fill="white" transform="translate(0 0.549438)"/>
</clipPath>
</defs>
</svg>
